<svg id="Lager_1" data-name="Lager 1" xmlns="http://www.w3.org/2000/svg" viewBox="0 0 358.46 102.45"><defs><style>.cls-1{fill:#fff;}</style></defs><title>uxfabriken_logo</title><path class="cls-1" d="M600.17,312.66V269c0-4.1-2.84-3-5.24-3.14s-4.4.06-4.3,3.34c.1,3.86,0,7.74,0,11.6v20.37a33.11,33.11,0,0,1-4-8.38c-2.78-7.79-5.72-15.49-8.31-23.33-1.54-4.62-4.88-3.6-8.3-3.46s-2.58,3-2.58,5v55c0,3.29,1.4,4.27,4.4,4.23s5.4-.16,5.3-4.17c-.12-5.66,0-11.34,0-17V293.71l1-.24c.5,1.38,1.05,2.68,1.53,4,3.52,9.7,7.12,19.36,10.48,29.12,1,3,3,3.4,5.19,3.44.08-.22.16-.42.28-.45a.9.9,0,0,1,.79.41.08.08,0,0,0,0,0h.95c2.24-.06,2.76-1.36,2.76-3.37v-1.18l-.1,0-.15-.61.25-.09v-12l-.06-.05Zm-4.34-12c0,.27.11.54.16.81l-1.76.49-.18-1Zm-2,3.43,1.55,1.09-.22.54-1.91-.87C593.5,304.57,593.69,304.32,593.88,304.06Zm-3.07,2.6,1.39-.78,2.3,5.63C590.71,310.65,591.21,308.4,590.81,306.66Zm6.42,15.75-2-.39.11-.7,2.05.25ZM599,309.34c-.07-.73-.14-1.46-.2-2.19l.75-.1.29,2.16Z" transform="translate(-241.72 -228.97)"/><path class="cls-1" d="M416.74,296.79c4.54-3.8,5.5-5.44,5.74-11.15a41.56,41.56,0,0,0-.52-8.84c-.87-5.08-3-8.22-6.69-9.76-.25.27-.54.6-.88,1,.09-.48.16-.89.23-1.26a17.26,17.26,0,0,0-5-.88c-4.9-.14-9.8,0-14.7,0-2.24,0-3.36.84-3.36,3.16v24.59l.35-2.82c1.58,1.74.66,2.9-.35,4v31.86c0,2.27.92,3.37,3.2,3.37h1.19l0-.68,2.44-.15,0,.83h2.29l-.89-2.06,3.67,2.05c2.13,0,4.26,0,6.39-.14a12.85,12.85,0,0,0,10.74-5.17C425.72,317.43,423.78,302.79,416.74,296.79ZM421,284.2l.51,0-.07,1.88-.68-.06Zm-10.22-7.1c2.56,2.08,2.5,11.84,0,13.85-2,1.64-5.1,1.92-8.66,3.12v0c0-5.95-.12-10.29,0-14.61a9,9,0,0,1,1.3-4.12C405.92,275.56,409,275.64,410.74,277.1ZM400,267.86l2-.42.26.75-2.09.4Zm11.71,50.75c-2.42,3.24-5.84,2.36-9.38,2.18l.06-14.09-.83,0c0-.38,0-.76.07-1.14l.76.35,0-4.17c3.54-.24,7-1.08,9.3,2.28C413.58,306.79,413.62,316.11,411.74,318.61Zm3.87-47.07c-.11-.69-.22-1.38-.34-2.08l.81-.12c.08.69.15,1.39.22,2.08Zm6,41.57q-1-5.33-2-10.66C422.09,305.66,422.39,309.37,421.59,313.11Z" transform="translate(-241.72 -228.97)"/><path class="cls-1" d="M451.79,327.19c1-1.06,1.85-.21,3.06,1.3l-2.4.22c.9,1.44,2.27,1.45,6,1.45,4.16,0,4.5-.58,3.28-4.59-1.32-4.35-2.65-8.69-3.92-13l-4,.46-.09-.6,3.66-1.38q-.9-3.11-1.74-6.22a4.73,4.73,0,0,1,1.32-4,12.55,12.55,0,0,0,5-9.4c0-.21,0-.42,0-.63-1.26-.25-1.91-1.9-3-3.24-.12,1.15-.2,1.86-.25,2.35l-7.53-2.43c-.07,1.5-.19,3-.4,4.51a2.37,2.37,0,0,1-.34.94l.35.72-1.06.08c-1.88,1.65-5.78,2.41-7.45,1.18-.58-.32-.66-1.52-.94-2.32a1.34,1.34,0,0,1,0-.4v-7.37a29.77,29.77,0,0,1,.06-5.34c.26-1.52.94-4,1.76-4.18,2.82-.46,6.84-1.06,7.5,2.68a49.82,49.82,0,0,1,.56,7.9c2.14-1.29,4.63,1.06,6.84,0,1.94-1,3.1.15,4.07,1.7q.12-4.14-.15-8.28c-.5,1.59-.92,2.89-1.36,4.31-1.93-3.77-2-4,1.26-5.45-.89-7.86-5.62-12-13.66-12.22-4.38,0-8.78.2-13.16,0-3.2-.16-4.26,1-4.26,4.22.1,9.3,0,18.6,0,27.91s.18,18.6,0,27.84c-.1,4.07,2.16,4.41,5.06,4.27,1.65-.08,3.3,0,4.38-.66l.56-1.4.34.3a5.47,5.47,0,0,0,.34-2.39c-.26-6.18-.18-12.4,0-18.58,0-1.38.68-3.72,1.58-4,2.78-.86,2.84,1.88,3.32,3.6,1.62,5.82,3.2,12.06,4.68,17.62C451.33,325.65,451.56,326.5,451.79,327.19Zm-3-56.68,7.17,2c-.31.35-.83,1-1.46,1.7.23.54.55,1.27.86,2l-.7.75-6.35-5.91Z" transform="translate(-241.72 -228.97)"/><path class="cls-1" d="M258.58,331.4c9.28-.38,14.9-5.59,15.28-14.63.26-7.72,0-15.46,0-23.2h.4c0-6.5-.15-13-.06-19.5l-6.33,1.62c1-1,1.6-1.57,2.21-2.12s1.52-1.33,2.4-2.09l1.75,1.06c0-.73,0-1.47,0-2.2a6.9,6.9,0,0,0-.2-2.17c-.38,1.68-1.76,2.1-3.86,2.14l3.08-3.49c-1-.94-2.67-.93-4.7-1-2.77-.07-4.47.38-5,2.72l.66-.12c.19.91.39,1.82.58,2.72l2.83-1.07c-2.27,3.24-2.75,3.9-4.24,2.94,0,1.35,0,2.69,0,4l.54-.54c.65,1.76,1.22,3.32,1.94,5.3,1.8.07,4.38-.24,4.74,3.21-2.23,1.09-5.23.67-7.2,3.17,0,8.27-.05,16.54-.05,24.8v3.1c-.18,4.44-2.06,6.36-5.58,6.3s-5.12-1.9-5.28-6.18V283.71h0V270.58c0-4.56-.26-4.5-5.76-4.74-3.6-.14-5.06.88-5.06,4.74.1,14.7,0,29.41,0,44.11a21.07,21.07,0,0,0,.28,3.46C243.38,326.93,249.3,331.78,258.58,331.4Zm9.62-51.23-.92-1.18a4.81,4.81,0,0,1,1-.71c.14,0,.63.4.6.51A8.13,8.13,0,0,1,268.2,280.17Zm.86,16,1,4.28.12,0h0l.12.4,1.8,2.75-.86.52c-.31-1.09-.63-2.18-.94-3.27l-.21-.31.05-.05-.05.05,0-.12C267.85,300.06,268,298.36,269.06,296.21ZM264,290.86l2.1.32-.35,1.26-1.93-.85Z" transform="translate(-241.72 -228.97)"/><path class="cls-1" d="M519.85,330c4.4,0,4.72-.44,3.38-4.75S520.42,316.45,519,312l-.62.52c-.2-.34-.39-.69-.59-1l.85-.6c-1.67-5.28-3.32-10.57-4.86-15.9a11.78,11.78,0,0,1,.3-6.95c2.28-6,5.08-11.76,7.62-17.76.52-1.22.84-2.52,1.26-3.82-8.46-1.76-9.48-1.22-12.46,6-2.58,6.24-5.26,12.46-7.89,18.71l-.64-.1c0-1.23-.14-2.45-.14-3.67,0-3.12,0-6.24,0-9.35l-1.33.2-.23-.66,1.2-.86.36.71c0-2.49,0-5,0-7.46,0-1.2-.44-3.42-.94-3.42a22.18,22.18,0,0,0-8-.2c-.8.16-1.5,3-1.5,4.58v36.5l1.07,1.38-1.07.14v14.63c0,6.57.3,6.85,7,6.57,2.44-.1,3.48-1,3.48-3.49a109,109,0,0,1,.12-14,57.16,57.16,0,0,1,2.89-10l1.28.18,6,21.46C513.85,330,513.73,330,519.85,330Zm-2.73-14.46,1.2,3-.81.43c-.44-1-.89-2-1.34-3Zm-24.4-13.7c-.29,0-.78-.55-.81-.9a1.16,1.16,0,0,1,.78-.87c.32,0,.67.43,1.18.8C493.38,301.35,493.05,301.88,492.72,301.88Zm3.14-31.09c-.17-.8-.34-1.6-.5-2.4l.75-.2c.19.79.37,1.59.56,2.38Zm5.24,2.76.7.72a5,5,0,0,1-1,.79c-.1.05-.39-.35-.59-.54Zm8.57,20.59-.85-.13c0-.75.06-1.51.08-2.26l1.14,0Z" transform="translate(-241.72 -228.97)"/><path class="cls-1" d="M383.55,325q-1.43-8.17-2.89-16.35c-1.08,1.31-2.18,2.61-3.28,3.9-.06.06-.47-.23-.76-.41,0,0,0,.05,0,.07l-.17,0q-2,3.43-4,6.91c.38,2.58.74,4.92,1.2,7.14.6,3.53,3.16,4.65,8.16,3.65C385.09,329.26,383.87,326.79,383.55,325Zm-.62-1.42-.63.1-.21-1.85a4.17,4.17,0,0,1,1,.8C383.25,322.79,383,323.25,382.93,323.57Z" transform="translate(-241.72 -228.97)"/><path class="cls-1" d="M370.56,312.57l5.9-.35.08-.14.08.05c-.1-.66-.44-1.61-.19-1.85a23,23,0,0,1,4-3.12c-.33-1.9-.67-3.8-1-5.69l-.24,0c-.15-.93-.31-1.86-.46-2.79l.2,0-1.53-8.57-.13.15-1-1.11.78-.8q-1.24-7-2.5-14c-1.76-9.68-.21-8.55-9.85-8.65-.07.68-.14,1.37-.2,2.06l-.94-.1.3-2-.3,0a3.43,3.43,0,0,0-3.61,3.26q-2.49,14.13-5,28.26l1.95-1.21c.05,2.48-1.1,2.77-2.26,3-.63,3.61-1.24,7.21-1.86,10.82,1.87-.49,3.26-1.81,3.87-4.59,2.34,4.4-2.44,4.75-2.46,6.94l-1.77-.29-.51,3c.44,1.71.81,3.2,1.28,5l-2-.67c-.41,2.43-.84,4.86-1.26,7.29a3.75,3.75,0,0,0,.28,2.12c.21-.31.41-.63.61-.94l-.08-.14.1,0c0-.67,0-1.35.08-2.39,1.28,1,2.22,1.8,3.17,2.58l-.25.69-3-.88v.11c.52.87,1,1.76,1.57,2.61a6.35,6.35,0,0,0,5.07-1l.58-.82v.37a5.67,5.67,0,0,0,2-3.36,61.87,61.87,0,0,1,1.12-6.46c.24-.86,1.26-2.14,2-2.14.46,0,.92,0,1.38,0L360.35,315l.21-1,7-.17c-.5,1-1,1.88-1.53,3l2.89,0,2.46-2.24C371.18,314,370.81,313.15,370.56,312.57Zm4.18-28.76.23.53a5.57,5.57,0,0,1-1.74.81,4.58,4.58,0,0,1-1.68-.59l.08-.64Zm0,19.71-3.49-3.69C374.57,299.85,374.57,299.85,374.78,303.52Zm-2.3-24.21-2.59-2.16C372.27,276.21,372.27,276.21,372.48,279.31Zm-8.59,8.26c.1-.46.94-.75,1.45-1.11l.54.62-1.19,3.1C364.25,288.88,363.77,288.15,363.89,287.57Zm-1.67-12.66,1.23.43-.17.62-1.21-.46Zm-2.34,9.62-.35-.83,3.56-3.2c.2,1.09.39,2.05.64,3.4Zm3.05,23c1.18-8,2.34-15.78,3.48-23.55h.86c.63,4.09,1.25,8.18,1.89,12.34.07-.74.14-1.55.26-2.79l3.37,2.37-3.59.72c.36,2.35.72,4.72,1.09,7.13l.11-.13,1.34,1.75h.15l0,.25.73,1.86-.94.21.21-2.07-.07-.19-.06-.07-1.2,0,.33,2.16Z" transform="translate(-241.72 -228.97)"/><path class="cls-1" d="M304.87,284.51h.05l.12.07,3-.26c1.68-4.78,3.4-9.56,5-14.34.38-1.16.5-3.22-.14-3.74-2.82-2.28-9.28.24-10.32,3.72-.13.45-.26.89-.4,1.34l3.39-.15c.09.26.17.53.25.79l-2.91,1.55L302,272c-.91,3-1.81,6.11-2.72,9.16l6.26.79C305.3,282.84,305.09,283.67,304.87,284.51Zm2.52-17.66.83.79-.57,1.21c-.29-.27-.81-.52-.81-.8S307.19,267.25,307.39,266.85Z" transform="translate(-241.72 -228.97)"/><path class="cls-1" d="M310.53,330.06c4.46-.34,4.74-.42,3.18-4.79-3-8.38-6.18-16.68-9-25.1a10.5,10.5,0,0,1,0-6.18c.91-2.77,1.87-5.55,2.84-8.32a8.86,8.86,0,0,1-2.51-1.09l-.19,0,.07-.09-.07.09,0-.09-4.42-.51L299,282.13c-.41,1.37-.81,2.74-1.22,4.11a96.54,96.54,0,0,1-3.4-9.2l-.63.4c-.23-1.07-.39-1.83-.59-2.74l.48-.11c-.17-.57-.33-1.15-.49-1.73l-.7.43c-.18-.22-.37-.43-.55-.64a5.56,5.56,0,0,1,.87-1.11c-1.39-4.75-1.8-5.49-5.73-5.6l-.51.41v.11l2.4.7-2.5,1.38v.16l-.16-.05c-1.23,1-2.35,1.2-3.1-1l3.1,1,.06,0,.11-.06.1-2.08-.1,0,.1-.1,0-.4h-2c-3.48,0-4,1.24-2.86,4.2q.82,2.25,1.64,4.5l.63-.86,1.9,2.28.26.13-.08.08.08-.08.75,5.5.15.27,1.94,1.34-.72.87L287,281.94l-.24-.17q-.37-2.76-.74-5.52l-.18-.21-2.44-1.19c2.3,6.29,4.56,12.58,6.59,19a12,12,0,0,1,0,7c-1.53,4.59-3.17,9.13-4.83,13.68l2.54.29c-.05.4-.1.81-.14,1.22l-2.76-.53c-1.31,3.6-2.62,7.2-3.87,10.82-.36,1.06-.16,3.15.52,3.59,3.14,2,8.48-.14,9.68-3.69l6-18,.74-.1q1,3,2,6l1.95.32c-.1.45-.19.9-.29,1.35l-1.21-.32c1.06,3.17,2.09,6.35,3,9.56C304.37,329,306.53,330.36,310.53,330.06Zm-2.06-4.81,2.26,1.93-.67.8-2-2.21ZM288.8,280.16c.61-2.12.95-3.28,1.46-5.07C292.14,277.65,291.57,278.74,288.8,280.16Zm2.46,32.49-2.39-.7.16-.77,2.44.54Zm-1.68-28.18.48-1.14,5.24,1.38c0,1.1,0,2.16.05,4.26Zm9,20.11-.72-1.34.93-.39a6.76,6.76,0,0,1,.46,1.28C299.25,304.22,298.8,304.42,298.56,304.58Z" transform="translate(-241.72 -228.97)"/><path class="cls-1" d="M535,266c-2.68,0-3.76,1.06-3.76,3.64v56.91c0,2.55,1,3.73,3.72,3.73,6.91,0,14-.12,20.91,0,4.08.06,3.6-2.54,3.72-5.27s-.28-4.86-3.88-4.72c-4.46.12-8.94,0-13.54,0V301.55c1,0,2,0,2.95,0v-.07l1-.44.14.49c1.48,0,2.91,0,4.33.06,3.32.18,3.86-1.8,3.78-4.38s.14-5.08-3.66-4.86c-2.76.11-5.55,0-8.5,0l.34.17-.13.33-1-.43c0-.13.1-.27.16-.4l.59.29V275c4.56,0,8.8-.2,13,.16,3.66.12,3.78-2.06,3.8-4.78s-.42-4.38-3.76-4.38C548.46,266.14,541.76,266.12,535,266Zm-1,25.64c0-.19,0-.39,0-.58l1.71-.07v.6Zm2.5-19.43-.16,0,.1-.11-.1.11-.06-.1c-1.56,0-1.57-.05-1.37-2.11l1.37,2.11h.16l.06.07,2.79-.77c-.19.87-.36,1.63-.69,3.15Zm4,17.12-1.33-.05,0-.22,1.32,0Z" transform="translate(-241.72 -228.97)"/><path class="cls-1" d="M324.79,265.92l-.87.77-.42-.7c-1.76.26-2.56,1.25-2.56,3.49q.06,14.16.07,28.34l.39-.1c.06.33.11.66.16,1l-.56.08q0,13.8-.06,27.59c0,3.67,2,3.91,4.78,3.79s6,.82,6-3.83v-20.5c0-1.36.18-2.7.28-4.3,1.82,0,3.49,0,5.16,0L335.09,299c.68-.26,1.33-.77,1.84-.64,1.59.42,3.13,1.06,4.69,1.63l.05,0,.07-.05L341,297.8l2,1.23-1.22.86.05.14-.17-.06-2.28,1.52,1.94,0c3.22.1,3.42-2,3.36-4.38s.32-4.84-3.3-4.84h-2.75l-.09.13-.14-.13h-3.81l.83.88-.51.69-2.35-1.57H332V275c3.91,0,7.64-.06,11.29,0l-.67-.36.37-.81,2.23,1.23c3.6.1,3.8-2.08,3.82-4.8s-.52-4.36-3.82-4.36C338.4,266,331.59,266,324.79,265.92Zm2.25,42-1.44-.31a1.8,1.8,0,0,1,.69-.27,2.42,2.42,0,0,1,.8.26Zm-2-16.74c.49-1.14.87-2,1.3-3L327.5,291Z" transform="translate(-241.72 -228.97)"/><path class="cls-1" d="M471.06,297.65c0,9.3.12,18.6,0,27.88-.08,4,1.86,4.73,5.22,4.67s5.7-.22,5.7-4.61c0-1.37,0-2.75,0-4.12l-.88-.34.17-.64.71.21q-.12-17.81,0-35.6c-3.33,2.64-6.68,5.11-10.85,5.9C471.06,293.22,471.06,295.43,471.06,297.65Z" transform="translate(-241.72 -228.97)"/><path class="cls-1" d="M470,267.81a2.26,2.26,0,0,0,1.05,1.77l0,4h0c0,5.28,0,10.55,0,15.83,4-1.78,7.89-3.41,10.85-6.93,0-3,0-6,0-9h0v-3.93a2.26,2.26,0,0,0,1.05-1.77C483,263.43,470,263.43,470,267.81Z" transform="translate(-241.72 -228.97)"/><path class="cls-1" d="M492.5,250.84c4.46.27,10.17-.6,12.79-4.31,9.68,1,14.53-13.78,3.69-17.15a9.17,9.17,0,0,0-1.92-.37c.53,1,.95,1.73,1.25,2.28l-2.46.4c.32-1,.59-1.85.86-2.71a10.23,10.23,0,0,0-6,1.58l.06.1c-.2.07-.38.15-.55.22a7.68,7.68,0,0,0-3.31,5.34,15.52,15.52,0,0,0-7.08,2.07h0c-2.64,1.53-4.81,3.92-5.14,6.48a13.07,13.07,0,0,0-3.24,2.24c0,.07.06.13.08.2s-.4.34-.62.51l-.07-.09a8.26,8.26,0,0,0-1.93,3.43c-2.58,1.78-4.38,4.67-4.08,7.27.43,3.52,4.35,3.44,7.67-.19l-1.14-.18.06-1,1.78.1h.19a14.18,14.18,0,0,0,1-1.54A17.76,17.76,0,0,0,492.5,250.84Zm10.05-12.14.38-.13c.09.32.17.64.26,1l-.55.13-1.66.39-.22-.74Zm-9-1,1.58.62-.24.69-1.55-.7Z" transform="translate(-241.72 -228.97)"/></svg>