<svg width="25" xmlns="http://www.w3.org/2000/svg" viewBox="0 0 51 55"><defs><style>.cls-1{fill:#fff;}</style></defs><title>music</title><path class="cls-1" d="M357.66-133.75a1,1,0,0,0-.79-.24l-31,4a1,1,0,0,0-.87,1v35.61A10.4,10.4,0,0,0,317-97c-5.51,0-10,4-10,9s4.49,9,10,9,10-4,10-9c0-.23,0-.46,0-.69a1.06,1.06,0,0,0,0-.19v-29l29-3.76v18.26a10.4,10.4,0,0,0-8-3.62c-5.51,0-10,4-10,9s4.49,9,10,9,9.91-4,10-8.87c0,0,0,0,0,0V-133A1,1,0,0,0,357.66-133.75ZM317-81c-4.41,0-8-3.14-8-7s3.59-7,8-7,8,3.14,8,7S321.41-81,317-81Zm31-10c-4.41,0-8-3.14-8-7s3.59-7,8-7,8,3.14,8,7S352.41-91,348-91Zm8-36v3.33l-29,3.75v-8.21l29-3.75Z" transform="translate(-307 134)"/></svg>